<?xml version="1.0" encoding="UTF-8"?>
<svg width="24px" height="24px" viewBox="0 0 24 24" version="1.1" xmlns="http://www.w3.org/2000/svg" xmlns:xlink="http://www.w3.org/1999/xlink">
    <!-- Generator: Sketch 43.1 (39012) - http://www.bohemiancoding.com/sketch -->
    <title>Group</title>
    <desc>Created with Sketch.</desc>
    <defs></defs>
    <g id="图文" stroke="none" stroke-width="1" fill="none" fill-rule="evenodd">
        <g id="免费／付费后的图文内容详情" transform="translate(-192.000000, -266.000000)" fill="#868686">
            <g id="最新字段-copy-2" transform="translate(31.000000, 261.000000)">
                <g id="日期" transform="translate(161.000000, 0.000000)">
                    <g id="Group" transform="translate(0.000000, 5.000000)">
                        <path d="M12.0009955,23.9746257 C10.382499,23.9746257 8.8121471,23.6578897 7.33353851,23.0332332 C5.90561311,22.4300107 4.62336124,21.5665418 3.52232313,20.4668254 C2.42131454,19.3671386 1.55680774,18.0863965 0.952860317,16.6602148 C0.327452971,15.1833518 0.0103362692,13.614885 0.0103362692,11.9983315 C0.0103362692,10.381778 0.327452942,8.81331126 0.952860317,7.33644824 C1.55680777,5.91026651 2.42131454,4.62952448 3.52232313,3.52983763 C4.62336124,2.43015077 5.90561311,1.5666818 7.33353851,0.9634594 C8.8121471,0.338802843 10.3825285,0.0220963073 12.0009955,0.0220963073 C13.619492,0.0220963073 15.1898439,0.338832288 16.6684525,0.9634594 C18.0963779,1.56668182 19.3786298,2.43015077 20.4796679,3.52983763 C21.5806765,4.62952448 22.4451833,5.91026651 23.0491307,7.33644824 C23.6745676,8.81331126 23.9916547,10.381778 23.9916547,11.9983315 C23.9916547,13.6148851 23.6745676,15.1833518 23.0491307,16.6602148 C22.4451832,18.0863965 21.5806765,19.3671386 20.4796679,20.4668254 C19.3786298,21.5665418 18.0963779,22.4300107 16.668482,23.0332332 C15.1898439,23.6578897 13.619492,23.9746257 12.0009955,23.9746257 Z M12.0009955,1.11293826 C5.9915413,1.11293826 1.10254835,5.99609154 1.10254835,11.9983315 C1.10254835,18.0005715 5.99157081,22.8837248 12.0009955,22.8837248 C18.0104497,22.8837248 22.8994722,18.000542 22.8994722,11.9983315 C22.8994722,5.99612105 18.0104497,1.11293826 12.0009955,1.11293826 Z" id="Shape"></path>
                        <polygon id="Shape" points="10.0035707 6.81996484 12.0035707 6.81996484 12.0035707 14.1744726 10.0035707 14.1744726 10.0035707 6.81996484"></polygon>
                        <polygon id="Shape" points="10.0035707 13.0880236 17.366918 13.0880236 17.366918 15.0880236 10.0035707 15.0880236 10.0035707 13.0880236"></polygon>
                    </g>
                </g>
            </g>
        </g>
    </g>
</svg>